<?xml version="1.0" standalone="no"?>
<!DOCTYPE svg PUBLIC "-//W3C//DTD SVG 20010904//EN"
 "http://www.w3.org/TR/2001/REC-SVG-20010904/DTD/svg10.dtd">
<svg version="1.0" xmlns="http://www.w3.org/2000/svg"
 width="212.000000pt" height="237.000000pt" viewBox="0 0 212.000000 237.000000"
 preserveAspectRatio="xMidYMid meet">

<g transform="translate(0.000000,237.000000) scale(0.100000,-0.100000)"
fill="#000000" stroke="none">
<path d="M983 2264 c-8 -4 -13 -24 -13 -52 l0 -47 120 0 121 0 -3 50 -3 50
-105 2 c-58 1 -111 -1 -117 -3z"/>
<path d="M1022 2104 c-30 -21 -52 -66 -52 -108 0 -47 47 -101 95 -110 67 -13
145 47 145 112 0 38 -30 92 -61 107 -37 20 -99 19 -127 -1z m96 -60 c26 -18
29 -56 6 -78 -40 -40 -105 4 -85 57 15 38 44 46 79 21z"/>
<path d="M970 1789 l0 -46 60 -7 c33 -4 87 -4 120 0 l60 7 0 46 0 46 -120 0
-120 0 0 -46z"/>
<path d="M840 1396 c0 -85 0 -86 28 -93 33 -10 448 -11 457 -1 3 3 7 45 8 92
l2 86 -60 -7 c-78 -10 -293 -10 -372 0 l-63 8 0 -85z"/>
<path d="M715 1188 c-44 -9 -102 -17 -128 -17 l-48 -1 -46 -97 c-25 -54 -63
-136 -84 -182 l-39 -84 72 5 c56 4 95 15 168 46 125 54 217 75 300 69 65 -4
134 -31 159 -61 12 -14 17 -13 47 10 69 53 178 67 289 39 33 -9 110 -36 171
-60 86 -35 124 -45 167 -45 32 0 57 3 57 6 0 3 -37 84 -82 180 l-81 174 -41 0
c-23 0 -80 8 -128 18 l-88 18 0 -77 0 -78 -57 -8 c-74 -10 -413 -10 -475 0
l-47 8 -3 77 -3 77 -80 -17z"/>
<path d="M205 666 c-50 -23 -77 -60 -83 -114 -8 -90 51 -156 139 -156 78 0
155 76 119 119 -18 22 -52 18 -79 -10 -27 -29 -53 -32 -75 -9 -31 30 -10 94
31 94 9 0 31 -9 49 -21 44 -27 74 -18 74 21 0 59 -109 107 -175 76z"/>
<path d="M426 668 c-13 -7 -16 -28 -16 -123 0 -62 3 -120 6 -129 4 -10 18 -16
35 -16 37 0 49 28 49 114 0 60 1 63 32 77 76 34 56 81 -35 84 -30 1 -62 -2
-71 -7z"/>
<path d="M618 669 c-16 -9 -18 -26 -18 -127 0 -121 6 -142 41 -142 35 0 44 29
43 143 0 95 -3 112 -19 123 -22 16 -25 17 -47 3z"/>
<path d="M795 666 c-39 -17 -73 -55 -84 -94 -20 -70 28 -154 99 -171 46 -11
148 -5 166 10 21 17 20 231 -1 249 -21 18 -143 21 -180 6z m89 -92 c22 -21 20
-57 -3 -78 -26 -24 -62 -17 -80 15 -13 24 -13 29 2 53 20 30 57 35 81 10z"/>
<path d="M1025 660 c-12 -13 -15 -41 -15 -126 0 -116 6 -134 45 -134 36 0 45
20 45 96 0 79 16 108 48 87 13 -8 18 -28 20 -84 3 -79 12 -99 46 -99 37 0 46
19 46 101 0 139 -27 171 -147 174 -57 2 -75 -1 -88 -15z"/>
<path d="M1375 670 c-17 -5 -44 -23 -60 -40 -38 -39 -46 -119 -17 -166 19 -30
103 -94 123 -94 5 0 34 18 64 40 57 42 76 79 55 105 -18 21 -57 19 -70 -5 -6
-11 -22 -23 -36 -26 -49 -13 -85 54 -48 90 21 21 40 20 80 -5 44 -27 74 -18
74 21 0 56 -95 101 -165 80z"/>
<path d="M1640 658 c-79 -40 -102 -135 -50 -208 27 -38 94 -64 140 -54 19 4
50 6 68 5 42 -3 44 4 46 140 1 99 -1 112 -19 125 -11 8 -26 12 -35 8 -18 -8
-24 -7 -70 1 -26 5 -47 0 -80 -17z m107 -94 c15 -24 15 -29 2 -53 -28 -49 -99
-32 -99 24 0 55 67 75 97 29z"/>
<path d="M1914 666 c-37 -16 -58 -64 -44 -100 9 -23 49 -57 83 -69 19 -7 23
-27 5 -27 -6 0 -20 7 -30 17 -15 13 -23 14 -43 5 -47 -21 -25 -76 36 -92 124
-34 191 103 78 160 -21 11 -40 24 -44 30 -10 16 17 12 36 -6 33 -29 80 7 63
49 -5 15 -72 47 -97 47 -6 -1 -26 -7 -43 -14z"/>
<path d="M953 290 c-44 -18 -56 -73 -23 -108 42 -44 120 -17 120 41 0 38 -7
50 -37 66 -25 13 -30 13 -60 1z m69 -45 c17 -38 -19 -74 -57 -57 -18 9 -25 19
-25 41 0 31 10 39 48 40 15 1 26 -8 34 -24z"/>
<path d="M525 234 c14 -31 25 -58 25 -60 0 -14 19 1 30 24 38 82 41 92 26 92
-8 0 -20 -16 -27 -35 -7 -19 -16 -35 -21 -35 -4 0 -10 16 -14 35 -4 25 -11 35
-25 35 -18 0 -17 -3 6 -56z"/>
<path d="M639 255 c-1 -19 -1 -47 -2 -62 -1 -25 3 -28 36 -31 21 -2 37 1 37 7
0 6 -11 11 -25 11 -18 0 -25 5 -25 20 0 13 7 20 19 20 11 0 23 5 26 10 4 6 -5
10 -19 10 -16 0 -26 6 -26 15 0 9 9 15 25 15 14 0 25 5 25 10 0 6 -16 10 -35
10 -33 0 -35 -2 -36 -35z"/>
<path d="M730 226 c0 -64 14 -90 23 -43 l4 22 8 -22 c4 -13 14 -23 21 -23 17
0 17 5 3 31 -7 15 -7 24 1 34 6 8 10 24 8 37 -2 18 -10 24 -35 26 l-33 3 0
-65z m48 32 c-6 -18 -28 -21 -28 -4 0 9 7 16 16 16 9 0 14 -5 12 -12z"/>
<path d="M814 228 c1 -61 2 -63 29 -66 51 -6 60 16 48 121 -1 4 -18 7 -39 7
l-39 0 1 -62z m56 27 c0 -8 -7 -15 -15 -15 -8 0 -15 7 -15 15 0 8 7 15 15 15
8 0 15 -7 15 -15z m5 -55 c0 -8 -8 -16 -17 -18 -13 -2 -18 3 -18 18 0 15 5 20
18 18 9 -2 17 -10 17 -18z"/>
<path d="M1070 224 l0 -67 42 6 c47 6 68 27 68 68 0 39 -24 59 -71 59 l-39 0
0 -66z m86 31 c19 -29 -2 -69 -39 -73 -26 -3 -27 -2 -27 48 0 50 1 51 26 48
15 -2 33 -12 40 -23z"/>
<path d="M1206 235 c-14 -32 -25 -63 -23 -69 2 -6 13 10 25 37 11 26 23 47 26
47 12 0 36 -60 30 -74 -4 -11 -1 -16 10 -16 22 0 20 16 -13 79 l-28 54 -27
-58z"/>
<path d="M1276 268 c3 -13 16 -43 29 -67 l21 -43 27 62 c30 69 31 70 17 70 -5
0 -18 -17 -28 -37 -19 -35 -20 -36 -31 -16 -6 12 -8 29 -5 37 4 12 0 16 -16
16 -18 0 -20 -4 -14 -22z"/>
<path d="M1400 225 c0 -37 4 -65 10 -65 6 0 10 28 10 65 0 37 -4 65 -10 65 -6
0 -10 -28 -10 -65z"/>
<path d="M1440 225 l0 -65 33 0 c48 0 77 24 77 65 0 44 -22 65 -71 65 l-39 0
0 -65z m80 25 c15 -27 4 -57 -22 -63 -31 -9 -38 -1 -38 44 0 35 3 39 25 39 14
0 29 -8 35 -20z"/>
<path d="M1576 231 c-29 -65 -30 -71 -16 -71 5 0 19 19 31 43 19 37 23 40 30
22 4 -11 8 -30 8 -42 1 -18 7 -23 26 -23 l25 0 -32 65 c-18 36 -35 65 -39 65
-3 0 -18 -26 -33 -59z"/>
</g>
</svg>
